PathFileType	4	(X/Y/Z)	C:/Users/beibeiliu/ov580/test_trc/capture2\sequence.3_training_dense_left.trc
DataRate	CameraRate	NumFrames	NumMarkers	Units	OrigDataRate	OrigDataStartFrame	OrigNumFrames
120	120	12	19	mm	120	219	350
Frame#	Time	ThumbCMC			ThumbMCP			ThumbIP			ThumbTip			IndexMCP			IndexPIP			IndexTip			MiddleMCP			MiddlePIP			MiddleTip			RingMCP			RingPIP			RingTip			PinkyMCP			PinkyPIP			PinkyTip			BackHand1			BackHand2			BackHand3	
		X0	Y0	Z0	X1	Y1	Z1	X2	Y2	Z2	X3	Y3	Z3	X4	Y4	Z4	X5	Y5	Z5	X6	Y6	Z6	X7	Y7	Z7	X8	Y8	Z8	X9	Y9	Z9	X10	Y10	Z10	X11	Y11	Z11	X12	Y12	Z12	X13	Y13	Z13	X14	Y14	Z14	X15	Y15	Z15	X16	Y16	Z16	X17	Y17	Z17	X18	Y18	Z18	
218	1.81667	-129.037	75.2376	-45.7277	-106.201	76.8089	-65.031	-97.9518	60.4453	-88.4378	-103.344	31.6598	-89.5573	-106.088	57.3418	-109.438	-77.5123	49.0719	-104.149	-74.3274	52.0758	-69.6777	-104.08	36.139	-111.46	-78.506	31.197	-96.0919	-89.215	38.4388	-59.3827	-107.446	18.6726	-100.128	-85.0522	21.4049	-76.5901	-105.396	31.4201	-54.577	-114.309	3.40262	-89.7304	-95.269	13.6889	-66.7343	-119.195	28.007	-48.8987	-158.332	29.0798	-76.5679	-170.979	29.4701	-48.2738	-159.652	58.9132	-61.3813	
219	1.825	-131.958	75.7567	-45.4835	-108.277	80.8998	-66.4465	-98.754	62.2503	-91.9123	-101.148	36.5435	-88.8072	-108.239	59.2965	-110.27	-77.7428	52.1812	-104.555	-76.5328	57.8622	-68.2458	-105.826	38.6769	-109.297	-77.366	33.836	-95.5434	-87.484	41.1138	-59.5172	-101.28	20.769	-99.5443	-83.5147	25.7524	-79.1992	-105.566	36.1907	-52.855	-110.092	9.36899	-88.2959	-92.2333	13.3254	-65.6125	-114.761	29.0484	-49.9949	-155.133	25.6979	-75.4342	-169.703	29.9827	-47.7389	-158.441	56.2765	-63.799	
220	1.83333	-135.142	79.3303	-44.8684	-112.379	84.12	-66.9525	-98.8007	70.9228	-90.4298	-101.892	39.0689	-89.2208	-109.804	60.0454	-110.092	-78.1609	58.8125	-103.368	-74.4073	62.2496	-72.3491	-107.555	43.7603	-109.282	-76.5501	43.1306	-95.7072	-88.4691	49.7991	-59.2055	-100.49	23.2736	-99.8794	-82.7271	26.9247	-76.9799	-103.223	38.4743	-53.5886	-103.47	8.95251	-88.2643	-89.8723	18.4116	-65.8992	-116.24	33.0177	-50.2814	-153.802	22.047	-75.4685	-165.647	29.8218	-47.6313	-159.418	58.0059	-64.1135	
221	1.84167	-138.601	81.5189	-44.5705	-115.833	86.7608	-68.513	-102.053	73.5938	-92.549	-100.186	43.165	-92.8037	-112.956	60.1383	-109.821	-82.0163	60.4255	-106.375	-77.5254	64.6459	-72.455	-107.546	45.0511	-110.665	-77.7923	43.48	-94.0256	-92.0153	51.2352	-58.744	-102.639	27.6717	-99.0238	-83.0119	32.2188	-75.7354	-106.751	40.6736	-51.4051	-104.326	14.1178	-87.7774	-89.6704	21.9586	-64.6635	-116.792	31.8885	-47.0691	-153.017	24.0858	-74.8806	-169.369	24.8934	-41.9507	-161.206	58.2606	-64.1784	
222	1.85	-140.561	79.6929	-45.4193	-118.817	87.7377	-68.6908	-105.132	79.6167	-93.8335	-99.5957	47.6196	-95.8252	-116.256	62.9342	-110.547	-84.467	64.3298	-108.12	-78.3533	66.9043	-74.8872	-110.642	44.2187	-109.025	-79.4685	47.607	-92.5371	-96.6219	52.2352	-59.0824	-101.823	28.7792	-98.7381	-82.9708	33.8727	-75.7165	-105.993	40.6012	-50.8816	-108.219	11.6041	-86.014	-90.4561	24.2102	-62.0375	-118.046	32.9372	-46.031	-153.638	20.5295	-73.534	-166.531	26.1195	-42.4959	-162.699	52.9378	-59.4074	
223	1.85833	-142.188	80.8377	-46.454	-119.837	88.9759	-62.7182	-106.967	83.4827	-87.772	-96.0734	59.9248	-101.763	-116.971	63.285	-111.614	-86.3274	62.7056	-106.8	-86.4173	63.2846	-71.7062	-108.863	40.6205	-107.701	-81.8696	48.709	-92.8524	-101.33	55.7826	-58.7905	-104.83	28.6335	-98.3586	-85.7915	36.721	-73.6574	-107.236	43.7222	-52.9465	-104.461	14.7628	-87.104	-91.683	27.5184	-65.2158	-117.877	34.1675	-46.0818	-156.338	22.5269	-73.6319	-167.953	20.3563	-44.3377	-162.814	51.1568	-60.1049	
224	1.86667	-143.075	78.3048	-49.5661	-118.701	85.2652	-66.8969	-101.074	92.5652	-86.4179	-88.1659	72.9899	-104.73	-120.232	64.0211	-113.689	-90.9297	65.9903	-102.547	-103.343	66.1901	-71.2777	-109.589	41.4849	-108.987	-85.2466	49.3488	-88.8803	-107.319	58.2234	-60.1932	-108.446	26.4314	-97.5527	-87.2499	37.8298	-73.6895	-111.586	45.2742	-53.8678	-103.898	12.4377	-87.513	-90.9907	26.7919	-64.2786	-119.508	36.0658	-46.2731	-156.188	16.3458	-70.666	-168.947	19.86	-41.2176	-166.65	51.2396	-63.2399	
225	1.875	-147.867	79.615	-51.1812	-122.812	91.3377	-66.8935	-107.133	89.3267	-85.05	-90.0027	73.2468	-107.699	-122.162	62.8137	-115.556	-97.9728	71.9935	-100.983	-112.354	63.3993	-73.8582	-117.447	44.1651	-109.763	-89.75	51.8342	-91.7621	-110.894	57.8172	-62.654	-104.689	28.7121	-99.2772	-91.9602	45.5154	-77.4535	-115.22	45.2995	-55.0619	-105.581	18.3749	-87.5006	-94.2498	31.8986	-65.6787	-121.642	35.9249	-45.7586	-156.848	14.6192	-70.823	-165.966	18.786	-38.4318	-168.612	47.587	-62.2018	
226	1.88333	-153.215	78.5126	-53.8744	-128.486	87.1634	-69.6886	-110.722	92.9429	-93.5938	-96.0662	71.707	-108.881	-130.2	62.9109	-115.065	-104.337	73.4004	-102.83	-121.027	67.8798	-75.3527	-118.617	46.0048	-111.248	-95.2965	59.0709	-91.2803	-118.842	60.1311	-64.1407	-108.754	34.7617	-100.614	-94.8571	46.6291	-77.3486	-123.413	47.2808	-57.6027	-103.192	19.5434	-88.3861	-95.4404	35.1902	-64.6359	-121.622	39.0262	-49.76	-153.079	10.3186	-72.6973	-165.739	17.4359	-41.8598	-171.461	41.9439	-60.7396	
227	1.89167	-158.521	73.1918	-52.5955	-137.349	87.1535	-71.5102	-120.287	90.107	-93.3456	-103.733	73.037	-108.142	-137.15	61.2404	-116.129	-112.046	77.2663	-108.223	-130.525	69.8957	-78.2887	-123.051	48.0479	-113.014	-101.354	65.4917	-94.5425	-123.853	62.6045	-65.709	-107.44	34.9183	-101.796	-99.4942	53.9808	-78.8574	-127.238	46.7418	-58.6967	-107.569	21.8113	-88.6866	-95.6049	39.6136	-69.0275	-121.673	38.6145	-47.1025	-154.871	11.3247	-74.2276	-161.9	13.2132	-40.3547	-175.713	39.9382	-64.5807	
228	1.9	-164.499	71.0966	-53.2544	-144.343	86.9056	-70.3722	-127.965	91.0293	-93.3713	-108.975	78.9757	-113.077	-138.451	59.2207	-118.014	-118.289	76.5615	-109.163	-136.956	71.1057	-78.7334	-124.827	46.9252	-113.745	-106.012	65.7377	-96.6989	-125.735	61.1549	-68.4214	-111.46	32.5174	-100.424	-103.368	57.3396	-81.7352	-125.89	51.1169	-61.1401	-104.743	22.804	-88.293	-99.7382	46.3789	-66.725	-127.476	40.7216	-53.8174	-150.304	7.06396	-70.0832	-161.302	10.8627	-39.4072	-176.01	35.0321	-60.5978	
229	1.90833	-166.383	67.256	-53.4226	-148.976	86.6618	-70.5532	-133.928	91.0893	-94.1599	-113.378	77.3099	-113.956	-147.305	59.2194	-117.884	-124.715	78.5044	-110.581	-137.048	70.8353	-80.8195	-130.966	45.4115	-112.881	-111.288	69.916	-97.6496	-127.947	61.2034	-68.9147	-111.803	36.5271	-102.815	-103.804	57.4624	-81.3651	-129.973	46.7771	-60.3769	-103.469	29.1052	-89.7094	-99.2861	48.1516	-71.733	-127.081	40.3351	-50.6163	-148.718	8.33307	-67.8916	-156.532	7.39592	-36.2376	-172.528	28.2709	-61.8297	
